<?xml version="1.0" encoding="utf-8"?>
<!-- Generator: Adobe Illustrator 26.5.0, SVG Export Plug-In . SVG Version: 6.00 Build 0)  -->
<svg version="1.1" id="Lager_1" xmlns="http://www.w3.org/2000/svg" xmlns:xlink="http://www.w3.org/1999/xlink" x="0px" y="0px"
	 viewBox="0 0 399.1 442.3" style="enable-background:new 0 0 399.1 442.3;" xml:space="preserve">
<style type="text/css">
	.st0{fill:#FFFFFF;}
	.st1{fill:#5EA8DC;}
	.st2{fill:#D7D8D8;}
	.st3{opacity:0;fill:#FFFFFF;}
	.st4{fill:#5F605F;}
	.st5{fill:#92BFDC;}
	.st6{fill:none;stroke:#FFFFFF;stroke-width:1.5;stroke-miterlimit:10;stroke-opacity:0;}
	.st7{fill:#5EA8DC;stroke:#FFFFFF;stroke-width:1.5;stroke-miterlimit:10;stroke-opacity:0;}
</style>
<polygon class="st0" points="372.4,253.3 343.2,251.9 343.2,277.9 "/>
<polygon class="st1" points="372.3,283 343.2,280.3 343.2,304 "/>
<g>
	<polygon class="st2" points="374.4,309.6 374.4,309.7 374.1,309.8 374.1,309.8 374,309.8 342.8,305.7 342.8,305.6 348.3,306.3 
		354.4,307.1 374.4,309.6 	"/>
	<polygon class="st3" points="374.3,310.5 373.9,310.5 342,306.3 342,304.8 342.8,304.8 354.5,306.4 376.7,309.1 	"/>
</g>
<polygon class="st1" points="398.1,250.5 375.1,253.4 375.1,280.2 "/>
<polygon class="st0" points="318.9,330.4 318.9,377.7 346.7,327.3 341.7,326.6 341.7,322.3 "/>
<polygon class="st0" points="398.2,222.6 375.1,222.6 375.1,250.6 "/>
<g>
	<polygon class="st2" points="348,326.4 347.8,326.7 342.5,326 	"/>
	<polygon class="st3" points="348.2,327.6 342.4,326.7 342.5,325.2 349.2,325.7 	"/>
</g>
<path class="st2" d="M353.1,351.8l0-23.6l-4.8-0.7l-28.4,51.5l21-8.8C348.3,367.2,353.1,360,353.1,351.8z"/>
<g>
	<polygon class="st4" points="353.8,327.6 347.8,326.7 348,326.4 	"/>
	<polygon class="st3" points="353.7,328.3 346.7,327.3 347.6,325.5 354,326.9 	"/>
</g>
<polygon class="st1" points="318.9,297.2 318.9,327.7 341.7,298.8 341.7,291.3 "/>
<polygon class="st1" points="318.9,260.8 318.9,294.5 341.7,266.4 341.7,258 "/>
<polygon class="st0" points="341.7,232 319.9,259.2 341.7,256.5 "/>
<polygon class="st5" points="320.3,328.3 341.7,320.7 341.7,301.2 "/>
<polygon class="st1" points="341.7,229.6 341.7,222.6 318.9,222.6 318.9,258 "/>
<polygon class="st1" points="291.3,322.4 316.5,297.2 291.3,294.4 "/>
<path class="st5" d="M270.2,287l-2.1,0l-0.7,0c-1,0-2,0-3,0l-22.2,28.5l32.6-8.3l0-20.2C273.3,287,271.8,287,270.2,287z"/>
<polygon class="st1" points="198.8,222.6 160.6,222.6 160.6,269.9 "/>
<polygon class="st0" points="238.3,318 201.1,327.4 201.1,365.5 "/>
<path class="st0" d="M241,285.8v28.8l21.5-27.6c0,0-0.1,0-0.1,0C254.6,286.8,247.3,286.4,241,285.8z"/>
<path class="st1" d="M201.1,277.9v46.6l29.6-40.6c-6-1.3-6.8-2.7-6.8-3.7c0-0.1-0.1-3-0.1-3l0-0.1l0.5-2.9L201.1,277.9z"/>
<polygon class="st1" points="316.7,260.7 309.9,259.9 311,267.5 "/>
<path class="st2" d="M317.4,295.8v-33.6l-6,7.3l1.3,8.5c0.2,1.9,0.2,2,0.2,2c0,0.9,0,3.1-14.2,4.9l-6.9,8L317.4,295.8z"/>
<polygon class="st0" points="292.1,323.7 317.4,328.9 317.4,298.5 "/>
<polygon class="st1" points="291.1,371.3 316.9,330.4 291.2,325.1 "/>
<polygon class="st5" points="291.6,373.4 317.4,379.7 317.4,332.4 "/>
<path class="st5" d="M5.5,254.5l48.7-31.8C33.2,223.7,14.5,235.9,5.5,254.5z"/>
<polygon class="st1" points="5.9,256 56.3,260.8 56.3,223.1 "/>
<polygon class="st0" points="59.1,222.6 94.9,256.8 94.9,222.6 "/>
<polygon class="st5" points="57.8,260.9 93.9,257.9 57.8,223.5 "/>
<polygon class="st0" points="96.4,255.4 96.4,291.2 125,324.8 125,257.5 "/>
<polygon class="st1" points="59,262.3 94.9,289.9 94.9,259.4 "/>
<polygon class="st5" points="344.3,250.5 373.6,251.9 373.6,223.6 "/>
<polygon class="st5" points="344.3,278.9 373.6,281.6 373.6,254.3 "/>
<polygon class="st2" points="373.6,283.9 344.4,305 373.6,309 "/>
<polygon class="st5" points="161.3,271.5 199.6,276.4 199.6,224 "/>
<polygon class="st0" points="198.8,277.8 160.6,272.9 160.6,316.5 "/>
<polygon class="st5" points="161.4,317.8 199.6,325.9 199.6,279.1 "/>
<polygon class="st0" points="198.6,327.2 160.6,319.2 160.6,354.4 "/>
<polygon class="st2" points="161.6,355.6 199.6,366.7 199.6,328.3 "/>
<polygon class="st5" points="158.1,253.9 126.5,223.7 126.5,256 "/>
<polygon class="st1" points="127,257.4 159.1,317 159.1,255.3 "/>
<polygon class="st5" points="158.8,319.4 126.5,259.7 126.5,325.9 "/>
<polygon class="st0" points="127,327.4 159.1,376 159.1,320.9 "/>
<polygon class="st2" points="158.7,378 126.5,329.3 126.5,387.6 "/>
<polygon class="st1" points="127.1,389 159.1,427.2 159.1,379.5 "/>
<polygon class="st2" points="158.7,428.9 126.5,390.7 126.5,442.3 "/>
<polygon class="st5" points="124,255.9 96.4,223.9 96.4,253.9 "/>
<polygon class="st5" points="123.7,325.6 96.4,293.5 96.4,319.2 "/>
<polygon class="st2" points="123.7,387.1 84,330.1 70.7,332.4 70.7,366.7 "/>
<path class="st1" d="M86.4,422.2l36.9,19.1l-52.6-71.6v26.7C70.7,407.2,76.7,417.1,86.4,422.2z"/>
<polygon class="st5" points="57.8,296.6 93.8,291 57.8,263.3 "/>
<polygon class="st5" points="93.8,326.8 57.8,299 57.8,333.1 "/>
<path class="st5" d="M0,278.4v6.2L54,296L4,257.7C1.4,264.3,0,271.2,0,278.4z"/>
<path class="st2" d="M22.1,322.4l31.7,9.8L0,286.9v6C0,306.5,8.9,318.3,22.1,322.4z"/>
<polygon class="st5" points="376.1,251.7 399.1,248.8 399.1,224 "/>
<polygon class="st2" points="376.3,281.2 399.1,275.4 399.1,251.7 "/>
<polygon class="st5" points="376.4,308.3 399.1,300.3 399.1,278.2 "/>
<polygon class="st0" points="397.4,302.5 375.1,310.4 375.1,328.5 "/>
<path class="st2" d="M399.1,313.7v-10.8L376.7,329l14.7-4.7C396,322.8,399.1,318.6,399.1,313.7z"/>
<polygon class="st3" points="95.3,292.1 95.2,292 96.1,290.8 "/>
<polygon class="st0" points="58.8,297.9 94.9,325.7 94.9,292.3 "/>
<polygon class="st0" points="56.3,295.9 56.3,262.3 6.2,257.5 "/>
<polygon class="st1" points="1.9,286.5 56.3,332.4 56.3,298 "/>
<polygon class="st1" points="125,222.6 97.3,222.6 125,254.7 "/>
<polygon class="st3" points="95.7,292.2 95.5,290.7 95.8,292.2 "/>
<polygon class="st3" points="95.4,320.6 95.4,320.6 95.8,319.1 "/>
<polygon class="st0" points="72,368.8 125,441.1 125,389.1 "/>
<polygon class="st3" points="69.7,368 69.8,367.4 69.3,367.8 67.8,365.6 70.1,366.5 69.9,367.2 70.5,366.8 70.5,366.9 69.8,367.4 
	"/>
<polygon class="st1" points="96.4,320.8 96.4,327.9 85.6,329.8 125,386.2 125,327.4 "/>
<polygon class="st0" points="127.6,222.6 159.1,252.8 159.1,222.6 "/>
<path class="st6" d="M159.9,320"/>
<polygon class="st1" points="273.7,309 241,317.3 241,353.8 "/>
<path class="st2" d="M274.8,328.1l0-18l-32.6,44.7l16.2-4.7C268,347.2,274.7,338.2,274.8,328.1z"/>
<polygon class="st5" points="202.4,366.4 239.5,355.5 239.5,318.9 "/>
<path class="st2" d="M239.5,285.6c-2.2-0.3-3.5-0.5-5.9-1l-1.2-0.2l-29.9,41.2l37.1-9.4C239.5,306.3,239.6,289.1,239.5,285.6z"/>
<polygon class="st5" points="202.1,276.2 224.6,272.8 229.6,240.8 "/>
<polygon class="st5" points="306.7,238.6 309.7,258.3 317.4,259.3 317.4,224.2 "/>
<path class="st1" d="M291.3,291l5-5.8c-1.7,0.2-3.3,0.3-5,0.5V291z"/>
<polygon class="st5" points="320.2,295.4 341.7,289.7 341.7,268.7 "/>
<path class="st7" d="M348.3,324.6"/>
<polygon class="st1" points="372.4,222.6 343.2,222.6 343.2,249.4 "/>
<polygon class="st3" points="342.4,251.9 340.1,251.7 342,250.1 342.2,250.4 342.5,250.4 342.5,250.6 343,251.2 342.4,251.6 
	342.4,251.6 "/>
<rect x="373.9" y="281.9" transform="matrix(0.6155 -0.7881 0.7881 0.6155 -78.8729 403.5716)" class="st3" width="0.5" height="1.5"/>
<path class="st6" d="M401.8,277.9"/>
<polygon class="st1" points="398,277.2 375.1,283 375.1,307.6 "/>
<polygon class="st3" points="374.6,310.7 374.3,310.4 374.3,310.6 374,310.5 374.1,310.3 373.4,309.8 373.8,309.4 374.1,309.6 
	374.1,309 374.5,309.1 375.7,309.2 "/>
<polygon class="st3" points="342.4,280.2 340.1,280 342,278.4 342.2,278.7 342.5,278.7 342.5,279.1 342.9,279.6 342.4,280 
	342.4,280 "/>
<polygon class="st3" points="374.8,253.1 373.9,252 374.9,253.1 "/>
<polygon class="st0" points="371.9,310.2 343.2,306.4 343.2,324.7 "/>
<polygon class="st5" points="353.9,326.9 373.6,329.7 373.6,311 344.9,325.6 353.9,326.8 "/>
<path class="st1" d="M353,90.4c0-8.1-4.8-15.4-12.3-18.5l-21.9-9.1v156.9h22.8v-104l11.4-1.6L353,90.4z"/>
<polygon class="st2" points="343.1,116.9 343.1,219.6 373.5,219.6 373.5,112.5 "/>
<polygon class="st1" points="160.5,86.9 160.5,219.6 199.5,219.6 199.5,75.5 "/>
<polygon class="st2" points="126.4,-0.1 126.4,219.6 159,219.6 159,13.5 "/>
<path class="st1" d="M124.9,219.6V0L86.2,20.1C76.6,25.1,70.5,35,70.5,46v63.9l25.7,4.5l0,105.3H124.9z"/>
<polygon class="st2" points="57.7,219.6 94.8,219.6 94.7,115.6 57.7,109.1 "/>
<path class="st1" d="M22,119.8c-13.2,4.1-22.1,15.9-22.1,29.5v14.5c0,30.5,25.2,55.4,56.3,55.8V109.3L22,119.8z"/>
<path class="st1" d="M398.9,219.6v-91.1c0-4.9-3.1-9.1-7.7-10.6l-16.3-5.2v106.9H398.9z"/>
<path class="st2" d="M258.2,92.2L201,75.5v144.1h116.2v-157L291,68.9l0.1,48.3l0.1,0.9v38.5c13.3,1.1,20.4,2.8,21.4,5.1h0.2
	l-0.1,0.9l-8,54.2h-73l-0.9-7.8l-6.9-44l0.1-2.8c0-0.1,0-0.1,0-0.2c0-5.2,28.8-6.5,44.1-6.5c2.3,0,4.6,0,6.7,0.1l-0.1-41.4
	C274.6,104,267.9,95,258.2,92.2z"/>
<polygon class="st0" points="231.9,224.3 304.6,224.3 306.4,236.5 316.6,222.6 201.1,222.6 201.1,275.1 230.1,237.7 230.8,233.2 "/>
</svg>
